<svg width="99" height="99" viewBox="0 0 99 99" fill="none" xmlns="http://www.w3.org/2000/svg">
<path d="M49.4167 98.9075C76.479 98.9075 98.4173 76.9692 98.4173 49.9069C98.4173 22.8446 76.479 0.90625 49.4167 0.90625C22.3543 0.90625 0.416016 22.8446 0.416016 49.9069C0.416016 76.9692 22.3543 98.9075 49.4167 98.9075Z" fill="#FCEA10"/>
<path d="M59.3998 53.0728C60.3492 56.1094 61.2818 59.0946 62.217 62.0812C62.8623 64.1428 63.4948 66.2069 64.158 68.2633C64.5519 69.4859 65.6539 70.1505 66.7828 69.7399C68.684 69.0485 70.557 68.2736 72.421 67.4846C73.1741 67.1665 73.6179 66.2787 73.5461 65.5129C73.4601 64.6033 72.8893 63.899 72.0515 63.6258C71.4768 63.4385 70.9431 63.5591 70.4108 63.772C69.4678 64.1492 68.5262 64.5276 67.5538 64.9176C67.473 64.7072 67.4063 64.5558 67.3562 64.3981C65.9515 59.9016 64.5467 55.4051 63.1446 50.9074C62.625 49.2409 62.1067 48.8509 60.3928 48.8509C55.8181 48.8509 51.2433 48.8509 46.6686 48.8509C46.5326 48.8509 46.38 48.8881 46.2632 48.8394C46.1349 48.7868 45.9605 48.6687 45.9412 48.5558C45.727 47.2819 45.5384 46.0042 45.3344 44.6777C45.5487 44.6777 45.7334 44.6777 45.9181 44.6777C48.4621 44.6777 51.0047 44.688 53.5487 44.6726C54.9598 44.6636 55.9104 43.5052 55.6616 42.1466C55.4755 41.1267 54.6199 40.4725 53.4191 40.4699C50.6712 40.4609 47.9233 40.4648 45.1741 40.4712C44.8764 40.4725 44.6558 40.466 44.5993 40.0837C44.2979 38.0286 43.9874 35.9747 43.6564 33.9247C43.6013 33.586 43.6885 33.4154 43.9694 33.2268C45.7218 32.0491 46.5981 29.9106 46.1709 27.9272C45.3998 24.3506 41.6166 22.5995 38.4261 24.4032C36.5172 25.4821 35.6192 27.2063 35.8078 29.3987C35.981 31.4167 37.0791 32.8509 38.9111 33.6886C39.2754 33.8554 39.4268 34.053 39.4794 34.4237C39.718 36.0748 39.9694 37.7245 40.226 39.373C40.8251 43.2255 41.4383 47.0754 42.0285 50.9292C42.2542 52.4032 43.0022 53.0728 44.5095 53.0728C49.2549 53.0741 54.0002 53.0728 58.7456 53.0728C58.9508 53.0728 59.1548 53.0728 59.3998 53.0728Z" fill="black"/>
<path d="M41.8322 76.1287C40.6635 75.9106 39.4756 75.7656 38.3313 75.4603C35.3024 74.6534 32.6879 73.0857 30.4839 70.8663C27.9323 68.2967 26.2992 65.2165 25.6039 61.6591C24.1568 54.2736 27.6282 46.6598 34.1414 42.8984C35.228 42.2711 36.4698 42.5507 37.0882 43.5642C37.7142 44.5879 37.4281 45.8298 36.3338 46.4853C33.7835 48.0132 31.8027 50.0697 30.6751 52.824C28.5173 58.094 29.2652 62.9767 32.965 67.3205C35.1895 69.9324 38.0978 71.3782 41.4897 71.8182C47.1638 72.552 52.8175 69.4795 55.3204 64.3352C55.4397 64.0902 55.5487 63.84 55.6808 63.6027C56.2325 62.6046 57.3884 62.2159 58.4018 62.6803C59.432 63.1524 59.9682 64.3391 59.4576 65.3743C58.8354 66.6367 58.1773 67.9106 57.337 69.0305C54.371 72.9818 50.3749 75.2525 45.4961 75.985C45.1972 76.0299 44.8983 76.0812 44.5994 76.13C43.6757 76.1287 42.7533 76.1287 41.8322 76.1287Z" fill="black"/>
<path d="M59.3998 53.0729C59.1548 53.0729 58.9508 53.0729 58.7468 53.0729C54.0015 53.0729 49.2561 53.0729 44.5108 53.0729C43.0034 53.0729 42.2555 52.4032 42.0297 50.9292C41.4383 47.0754 40.8263 43.2255 40.2272 39.3731C39.9707 37.7246 39.7179 36.0748 39.4806 34.4237C39.4267 34.0517 39.2753 33.8541 38.9123 33.6887C37.0803 32.8497 35.9835 31.4167 35.809 29.3987C35.6204 27.2076 36.5184 25.4821 38.4274 24.4032C41.6192 22.5995 45.4023 24.3519 46.1721 27.9273C46.5993 29.9106 45.7218 32.0491 43.9707 33.2268C43.6897 33.4154 43.6025 33.586 43.6576 33.9247C43.9886 35.9747 44.3004 38.0286 44.6006 40.0838C44.657 40.4648 44.8777 40.4712 45.1753 40.4712C47.9232 40.4648 50.6711 40.4622 53.4203 40.4699C54.6211 40.4738 55.4755 41.1268 55.6628 42.1466C55.9116 43.5052 54.961 44.6649 53.5499 44.6726C51.0072 44.688 48.4633 44.6778 45.9193 44.6778C45.7346 44.6778 45.5486 44.6778 45.3356 44.6778C45.5383 46.003 45.7269 47.282 45.9424 48.5559C45.9617 48.6688 46.1362 48.7868 46.2644 48.8394C46.3812 48.8881 46.5338 48.8509 46.6698 48.8509C51.2446 48.8509 55.8193 48.8509 60.394 48.8509C62.1079 48.8509 62.6262 49.2409 63.1458 50.9074C64.548 55.4051 65.9527 59.9016 67.3574 64.3981C67.4062 64.5559 67.4742 64.7085 67.555 64.9176C68.5287 64.5277 69.4703 64.1492 70.412 63.772C70.9431 63.5591 71.478 63.4398 72.0528 63.6258C72.8905 63.899 73.4614 64.6033 73.5473 65.5129C73.6192 66.2775 73.1753 67.1652 72.4222 67.4847C70.5582 68.2736 68.6852 69.0485 66.784 69.74C65.6551 70.1505 64.5531 69.486 64.1592 68.2634C63.496 66.2082 62.8635 64.1428 62.2183 62.0812C61.283 59.0947 60.3491 56.1094 59.3998 53.0729Z" fill="black"/>
</svg>
