<svg width="100" height="149" viewBox="0 0 100 149" fill="none" xmlns="http://www.w3.org/2000/svg">
<path d="M77.8756 73.0068C76.5216 81.2247 74.4127 89.133 71.2292 96.8143C70.485 93.557 69.7382 90.3024 68.994 87.0451C68.7952 86.1801 68.6152 85.3097 68.4164 84.442C67.7233 81.4063 67.7663 81.174 69.6495 78.3332C70.563 78.95 71.4549 79.6068 72.4032 80.1675C72.7363 80.3624 73.3918 80.5172 73.5772 80.3463C73.8593 80.082 74.0312 79.492 73.9587 79.0915C73.4429 76.208 72.8599 73.3352 72.2796 70.4624C72.2366 70.2434 72.0862 70.0138 71.9196 69.859C71.7665 69.7148 71.5355 69.6107 71.3232 69.5733C68.2391 69.0233 67.726 67.0823 67.8093 64.2442C67.8765 61.9267 68.3627 60.8026 70.6731 59.8094C76.2261 57.4199 79.2215 52.6781 80.7233 47.0286C81.4056 44.4655 81.6608 41.7929 82.1283 39.0563C85.6583 37.2781 86.9076 35.1155 86.4428 31.3616C86.0694 28.3526 84.4897 26.7694 81.2283 26.0859C80.5594 23.7123 79.8663 21.3735 79.2726 19.008C79.1758 18.6235 79.466 18.0975 79.6809 17.689C81.4271 14.3837 82.6011 10.9262 81.5829 7.18831C80.6185 3.65869 78.2598 1.36525 74.5927 0.566944C74.0393 0.446799 73.3838 0.372041 72.8707 0.550925C69.209 1.83782 65.5258 1.17034 61.8372 0.796556C56.749 0.281264 51.6581 -0.0765027 46.621 1.21573C42.4918 2.27301 38.9483 4.1553 36.9496 8.16816C36.8179 8.43248 36.4472 8.63806 36.141 8.74753C32.9628 9.89292 30.8298 12.1116 29.4408 15.1099C27.8531 18.5407 27.3749 22.1905 27.4394 25.907C27.5227 30.7288 28.2427 35.4626 29.7122 40.0815C31.3402 45.189 34.1906 49.3381 38.8919 52.1308C39.2546 52.3471 39.5877 52.9451 39.5958 53.3723C39.6495 57.1582 39.577 60.9415 39.6495 64.7221C39.6683 65.7607 39.045 65.8381 38.3627 66.0383C31.3697 68.0888 24.7341 70.8842 18.84 75.2442C10.5709 81.3636 5.44511 89.3065 3.74992 99.5429C1.43417 113.528 -0.0138474 127.564 0.0237656 141.743C0.0264511 142.942 0.104355 144.146 0.230621 145.337C0.421364 147.153 1.60074 148.242 3.42487 148.29C5.21407 148.335 7.00596 148.306 8.79784 148.306C27.2003 148.303 45.6028 148.301 64.0052 148.298C64.1396 148.298 64.2739 148.295 64.4082 148.295C66.904 148.335 67.0302 148.338 67.0517 145.738C67.0813 142.325 66.9308 138.911 66.7589 135.501C66.7213 134.764 66.8637 134.367 67.4923 134.011C69.8591 132.666 72.2044 131.28 74.5578 129.908C75.3288 129.459 76.1159 129.31 76.7204 130.095C77.3302 130.885 76.989 131.606 76.3067 132.196C75.6646 132.749 74.9742 133.253 74.3778 133.851C74.0339 134.196 73.8432 134.69 73.5826 135.117C74.0608 135.352 74.539 135.779 75.0225 135.784C76.6317 135.8 78.2409 135.624 79.8502 135.603C80.503 135.595 81.18 135.725 81.8005 135.934C82.0665 136.025 82.3352 136.452 82.3889 136.761C82.6199 138.094 83.082 139.501 82.8348 140.758C82.6925 141.487 82.1471 142.152 82.4775 142.996C82.5071 143.073 82.5259 143.212 82.4829 143.255C81.3304 144.349 81.8032 146.242 80.4573 147.275C80.186 147.484 80.2263 148.098 80.1242 148.525C80.5621 148.616 81.0134 148.819 81.4379 148.776C82.3002 148.685 83.1438 148.327 84.0008 148.317C88.2535 148.269 92.5089 148.309 96.7616 148.293C98.9377 148.282 99.8296 147.364 99.8269 145.174C99.8027 129.894 98.7899 114.681 96.2673 99.6017C94.5103 89.1063 89.2851 80.6774 80.3821 74.6087C79.7212 74.1575 79.0872 73.6689 78.4317 73.207C78.3323 73.1349 78.1899 73.1162 77.8756 73.0068ZM48.1711 30.6701C48.5767 30.7022 48.8373 30.7128 49.0952 30.7449C53.5333 31.3055 57.966 31.9089 62.4121 32.3975C63.4411 32.5097 63.8118 32.766 63.9434 33.8473C64.2981 36.8002 66.3747 38.9441 68.8033 39.1204C71.2211 39.2966 73.3623 37.6759 74.2246 34.9927C74.3724 34.5281 74.4637 34.0449 74.5416 33.5616C74.7619 32.1733 74.9715 32.0424 76.4705 32.4136C76.8198 34.8432 77.4457 37.1206 79.8099 38.4849C80.0543 38.6264 80.2021 39.1577 80.1833 39.4968C79.9764 43.2053 79.3881 46.8391 77.7601 50.2272C75.4551 55.025 71.8766 58.3357 66.5467 59.5451C63.4706 60.242 60.4134 60.0951 57.3803 59.3022C56.6147 59.1019 55.9162 59.1526 55.9323 60.0471C55.9377 60.3781 56.6819 60.9335 57.1359 60.9869C60.1233 61.3393 63.1241 61.5823 66.278 61.8759C66.278 62.8184 66.1302 64.0786 66.3102 65.2908C66.6702 67.731 65.7112 69.5573 64.0563 71.2233C63.5378 71.7466 63.1375 71.8961 62.4498 71.6985C55.7496 69.7789 49.0469 67.8699 42.3306 66.0063C41.5139 65.7794 41.3044 65.4216 41.3124 64.626C41.3474 60.7546 41.3124 56.8832 41.3312 53.0119C41.3339 52.542 41.4092 52.0213 41.6187 51.6102C42.8276 49.258 43.193 46.7242 43.3918 44.1398C43.4697 43.1279 43.1178 42.4898 42.1533 42.0439C40.1976 41.1388 38.6098 39.7958 37.6991 37.7907C36.6594 35.5 37.2639 32.6992 39.26 31.3055C41.4199 29.7944 43.9183 29.466 44.6921 33.033C45.0332 34.5975 45.9359 34.448 47.0642 34.3386C48.3457 34.2131 48.4048 33.4174 48.2893 32.4403C48.2248 31.9089 48.214 31.3776 48.1711 30.6701ZM74.3294 30.6728C73.4456 28.2912 72.0298 26.3716 69.1955 26.3716C66.2404 26.3716 64.8622 28.4354 63.9434 30.9344C58.8149 30.2883 53.7616 29.6636 48.7164 28.9827C48.4343 28.9454 48.0636 28.4754 47.9937 28.1497C47.4591 25.6774 47.7735 23.6269 50.0489 21.8621C51.7924 20.5085 53.0067 18.4793 54.4816 16.7225C61.762 18.9653 69.0155 18.9359 76.1885 15.9349C77.752 19.275 78.7245 22.6737 79.3263 26.1847C79.3666 26.4143 79.3209 26.7293 79.1866 26.9109C78.3 28.0883 77.3759 29.239 76.3362 30.5606C75.8903 30.5847 75.1434 30.6274 74.3294 30.6728ZM62.0898 73.3325C61.7351 73.7624 61.4934 74.0747 61.2301 74.3684C59.4463 76.3628 57.6544 78.3493 55.8759 80.349C55.4192 80.8616 54.6509 81.4277 55.4407 82.1298C56.3192 82.9068 56.7517 81.975 57.2326 81.441C57.735 80.8857 58.2266 80.3223 58.8364 79.6308C59.4919 80.3357 60.0077 81.0165 60.6498 81.5451C61.359 82.1298 61.5229 82.784 61.4074 83.649C60.8486 87.742 60.3274 91.8429 59.7821 95.9386C59.7579 96.1255 59.6316 96.299 59.5054 96.5847C52.4345 86.642 45.3717 76.8675 36.415 68.3852C38.0779 67.966 39.8644 67.2077 41.3904 67.5628C46.5162 68.751 51.548 70.3342 56.6174 71.7679C58.4093 72.2699 60.1904 72.7878 62.0898 73.3325ZM47.1287 109.008C49.8609 109.408 52.4157 109.785 54.9732 110.153C63.6909 111.405 72.4086 112.652 81.1262 113.907C82.1659 114.057 82.8214 114.604 82.9262 115.741C82.5286 115.741 82.174 115.784 81.8301 115.736C76.6962 115.01 71.5623 114.27 66.4284 113.539C61.0716 112.775 55.7174 112.011 50.3579 111.266C48.5928 111.021 48.4988 111.128 48.206 112.866C47.2657 118.43 46.2717 123.986 45.3959 129.561C45.1917 130.856 44.6625 130.96 43.553 130.554C44.7431 123.375 45.9278 116.249 47.1287 109.008ZM65.4506 32.7072C65.4425 30.2563 66.9792 28.1337 68.8973 27.9441C70.7994 27.7572 72.4865 29.4927 72.8707 32.0318C73.2683 34.6483 71.5167 37.4143 69.3943 37.5264C67.2451 37.6439 65.4613 35.4599 65.4506 32.7072ZM67.4063 69.8269C68.1505 70.1233 68.8705 70.3529 69.5313 70.6973C69.9666 70.9243 70.5656 71.2526 70.665 71.6451C71.1405 73.5194 71.4683 75.431 71.9277 77.7165C69.44 75.965 67.2774 74.4405 65.01 72.8439C65.8347 71.8053 66.5977 70.8442 67.4063 69.8269ZM82.0799 37.1793C81.857 34.0102 81.6447 30.9718 81.4325 27.9308C83.1545 27.9228 84.436 29.239 84.8228 31.3856C85.3037 34.0555 84.2184 36.4318 82.0799 37.1793ZM80.3552 36.7522C77.8165 34.8325 77.5881 30.5446 79.7991 28.8172C79.9845 31.439 80.1591 33.9407 80.3552 36.7522Z" fill="#1E396B"/>
</svg>
