<svg width="135" height="155" viewBox="0 0 135 155" fill="none" xmlns="http://www.w3.org/2000/svg">
<path d="M126.349 101.224C128.78 101.976 131.126 102.704 133.474 103.429C135.091 103.926 135.253 104.235 134.75 105.845C133.055 111.267 131.365 116.688 129.659 122.107C129.398 122.938 129.326 123.537 130.03 124.362C130.685 125.133 131.013 126.398 131.037 127.454C131.142 132.156 129.683 136.393 126.518 139.885C125.653 140.842 124.259 141.401 123.007 141.887C122.343 142.145 121.975 142.379 121.773 143.045C120.793 146.299 119.78 149.544 118.778 152.792C118.251 154.496 117.988 154.617 116.263 154.068C111.661 152.607 107.058 151.143 102.442 149.716C101.814 149.523 101.121 149.463 100.457 149.463C68.3481 149.49 36.2393 149.531 4.13046 149.571C1.82257 149.574 1.50286 149.308 1.29061 147.027C0.377127 137.279 1.08373 127.626 2.8274 118.013C4.83706 106.946 7.6581 96.0866 10.8633 85.3183C11.0299 84.7622 11.2529 84.206 11.3147 83.6364C11.672 80.3076 13.6602 78.2926 16.492 76.7988C24.2243 72.7257 32.1394 69.0799 40.4816 66.4415C42.9534 65.6597 44.4552 63.599 46.5536 62.347C46.7873 62.2073 46.8679 61.7183 46.9136 61.3771C47.33 58.2282 47.9507 55.0821 48.0366 51.9225C48.0904 49.9236 47.5315 47.9328 45.2371 46.8393C40.7476 44.698 38.7003 37.2961 41.1748 33.0081C41.4649 32.503 41.5509 31.7561 41.4488 31.1677C40.6509 26.4821 39.7857 21.8072 40.8336 17.0437C41.7605 12.8256 44.0925 10.6198 48.3214 9.89169C48.6438 9.83527 49.1086 9.57734 49.1919 9.31404C50.9705 3.70151 55.4224 1.65962 60.6642 0.754195C65.7743 -0.129732 70.8629 0.488211 75.879 1.45543C79.1111 2.07874 82.3566 2.87669 85.4222 4.0481C88.8692 5.36459 91.615 7.68053 92.5204 11.5386C93.1706 14.3059 92.4398 16.6461 90.269 18.5563C89.9036 18.876 89.6537 19.6014 89.7155 20.0931C90.7741 28.5348 90.8977 36.9791 89.7424 45.4127C89.0465 50.4959 87.2572 55.1547 83.4125 58.728C82.0584 59.9854 80.3389 60.8478 78.8102 61.9225C78.3937 62.2153 77.7973 62.5861 77.7409 62.9864C77.62 63.8408 77.7543 64.6038 78.7054 65.2406C81.1772 66.8956 84.0197 67.5108 86.7279 68.5318C92.0771 70.5468 97.3673 72.7204 102.668 74.8617C105.172 75.8719 106.886 77.6773 107.751 80.2485C109.191 84.5257 110.629 88.8057 112.039 93.0937C112.523 94.5633 113.248 94.8884 114.578 94.1253C116.703 92.9056 119.097 93.6256 120.344 95.7589C120.64 96.264 121.225 96.6831 121.773 96.941C122.536 97.2984 123.388 97.4622 124.199 97.7094C126.397 98.3811 126.685 98.8298 126.349 101.224ZM87.4587 20.0958C85.7204 20.3994 84.24 20.7567 82.7381 20.9045C77.1847 21.4553 71.7871 20.5391 66.4083 19.2011C63.8264 18.559 61.1478 18.1694 58.4906 18.0055C56.395 17.8766 56.266 18.3387 56.5562 20.3618C56.9216 22.9007 57.2708 25.574 55.417 27.6804C53.2327 30.1629 52.3972 33.0001 52.4186 36.1919C52.4267 37.2827 51.9888 37.8711 50.8469 37.8979C49.7427 37.9221 49.1865 37.4788 49.1812 36.3181C49.1785 35.7969 49.0119 35.2569 48.8292 34.7599C48.3644 33.489 47.4859 32.6508 46.0995 32.4815C44.7159 32.3123 43.8104 33.078 43.1119 34.1446C42.1151 35.6653 41.9996 37.3337 42.4429 39.0478C43.222 42.0784 44.5063 44.6819 47.9104 45.5497C48.2972 45.6491 48.711 46.224 48.8426 46.6593C50.0678 50.7538 52.6013 53.8462 56.1236 56.146C60.5271 59.0208 65.4358 60.4743 70.6345 60.9096C77.2546 61.463 82.0826 58.5883 85.0863 52.7715C86.0992 50.8102 86.8703 48.6421 87.2975 46.4793C88.7161 39.3085 88.4931 32.0517 88.0121 24.8029C87.9127 23.2527 87.6548 21.7132 87.4587 20.0958ZM118.479 122.809C117.733 122.516 117.491 122.4 117.238 122.325C110.949 120.417 104.659 118.515 98.3694 116.61C98.0282 116.508 97.6118 116.476 97.3726 116.256C97.1228 116.025 96.8649 115.552 96.9454 115.283C97.0207 115.028 97.507 114.81 97.8455 114.738C98.1195 114.681 98.4473 114.853 98.7456 114.945C105.465 116.973 112.182 119.01 118.904 121.03C119.318 121.154 119.761 121.207 120.194 121.253C121.593 121.398 123.007 121.444 124.387 121.68C125.331 121.841 126.231 122.261 127.246 122.599C129.038 116.825 130.795 111.162 132.585 105.404C130.215 104.689 127.974 104.015 125.664 103.317C125.36 104.278 125.121 105.09 124.85 105.888C124.342 107.382 123.608 107.819 122.082 107.368C116.98 105.858 111.889 104.316 106.8 102.755C105.481 102.349 105.081 101.514 105.438 100.152C105.615 99.4746 105.828 98.8056 106.053 98.0345C103.514 97.2715 101.091 96.5434 98.544 95.7804C93.6892 111.13 88.8692 126.369 84.0278 141.68C94.9815 145.103 105.801 148.486 116.738 151.906C117.843 148.335 118.92 144.858 119.952 141.519C118.426 140.522 117.015 139.732 115.755 138.746C114.508 137.771 113.697 136.433 114.036 134.764C114.267 133.62 113.845 133.118 112.813 132.814C109.382 131.804 105.962 130.753 102.539 129.719C99.8444 128.905 97.1362 128.123 94.4656 127.234C94.0653 127.099 93.8342 126.457 93.5226 126.051C94.0062 125.901 94.4844 125.737 94.9734 125.608C95.0836 125.579 95.226 125.678 95.3549 125.718C100.828 127.387 106.303 129.055 111.779 130.718C112.313 130.882 112.859 131.019 113.402 131.17C113.697 129.802 113.958 128.601 114.224 127.371C113.899 127.258 113.608 127.145 113.313 127.054C107.749 125.374 102.185 123.698 96.6204 122.016C95.9594 121.817 95.0057 121.774 95.2609 120.756C95.5215 119.716 96.3571 120.13 97.0341 120.334C102.472 121.97 107.907 123.615 113.348 125.237C114.264 125.511 115.18 126.229 116.072 124.996C116.634 124.233 117.496 123.685 118.479 122.809ZM50.1967 54.0182C49.8125 56.627 49.4848 59.1364 49.0495 61.6296C48.9152 62.398 49.1247 62.75 49.7722 63.1019C55.0382 65.9606 60.2934 68.8407 65.5325 71.7504C66.2176 72.132 66.7066 72.1105 67.3299 71.6376C69.6136 69.9101 71.9376 68.2362 74.2374 66.5329C75.8817 65.3158 75.9676 64.9853 75.2986 63.0267C65.7125 63.4593 57.1795 61.0332 50.1967 54.0182ZM129.229 128.101C128.839 127.204 128.689 125.855 128.012 125.498C126.177 124.525 124.146 123.883 122.141 123.284C120.892 122.911 120.005 123.534 119.584 124.826C119.465 125.189 119.113 125.557 118.772 125.748C116.188 127.185 115.024 130.584 116.212 133.265C116.362 133.607 116.545 134.069 116.432 134.372C115.881 135.85 116.561 136.801 117.695 137.551C118.59 138.142 119.511 138.701 120.465 139.181C122.555 140.235 123.635 140.028 125.129 138.201C127.499 135.305 128.78 131.97 129.229 128.101ZM57.7733 80.5091C59.9602 78.1341 62.0935 75.8208 64.2402 73.4941C59.6002 70.9659 54.6325 68.4136 49.8394 65.5656C47.9614 64.448 46.6369 64.5313 45.2236 66.0116C45.1618 66.0761 45.1135 66.1487 44.9362 66.3663C45.7341 67.9111 46.2446 69.8456 47.4644 71.0815C50.6911 74.3431 54.2241 77.3039 57.7733 80.5091ZM50.1672 76.6161C50.1269 76.6752 50.0866 76.7316 50.0463 76.7907C53.9232 85.0282 57.7974 93.2683 61.7469 101.659C61.8597 101.272 61.9618 101.036 61.9941 100.791C62.6335 95.8663 63.2729 90.9416 63.8855 86.0142C63.9258 85.6891 63.8587 85.27 63.6786 85.012C62.6819 83.6015 61.6341 82.2259 60.3068 80.4419C59.8259 81.119 59.525 81.6913 59.0871 82.1292C57.8619 83.357 57.6362 83.3167 56.352 82.1534C54.3047 80.2942 52.2306 78.4618 50.1672 76.6161ZM107.614 100.759C112.73 102.298 117.673 103.784 122.724 105.305C123.278 103.454 123.794 101.729 124.32 99.9636C122.552 99.4423 120.989 99.0447 119.482 98.4993C119.07 98.3489 118.815 97.7551 118.498 97.3575C118.079 96.8309 117.759 96.0114 117.233 95.8475C116.714 95.689 115.798 96.0141 115.403 96.4467C114.828 97.0754 114.32 97.1049 113.635 96.89C112.193 96.4413 110.75 96.0007 109.178 95.5171C108.657 97.2634 108.165 98.9184 107.614 100.759ZM73.8908 104.106C73.9902 104.088 74.0923 104.069 74.1917 104.05C75.4061 96.2613 76.6232 88.4725 77.8376 80.6837C77.7033 80.6569 77.5689 80.6327 77.4346 80.6058C77.2008 80.982 76.9832 81.3662 76.7307 81.7289C75.9435 82.8627 75.5082 82.911 74.4846 81.9949C73.9687 81.5328 73.4636 81.0599 72.8726 80.5199C72.174 81.8928 71.4808 83.0937 70.9516 84.3645C70.6829 85.0094 70.5244 85.8073 70.6292 86.487C71.0375 89.1334 71.5668 91.7637 72.0612 94.3967C72.6657 97.6342 73.2782 100.872 73.8908 104.106ZM75.218 79.6252C78.3857 76.5731 78.9579 72.6532 79.0439 68.5748C79.0654 67.6183 77.6253 66.6887 76.9134 67.2153C74.1165 69.2733 71.3465 71.3689 68.4717 73.5237C70.7877 75.6193 73.0579 77.672 75.218 79.6252ZM27.5371 139.437C27.5371 140.869 27.4806 142.303 27.5585 143.73C27.6015 144.488 27.3033 145.758 28.5956 145.621C29.7294 145.503 29.2592 144.348 29.2619 143.609C29.27 140.436 28.8374 137.204 29.2942 134.101C30.4414 126.32 31.997 118.599 33.3377 110.842C33.4209 110.361 33.1684 109.442 32.8675 109.343C31.9271 109.031 31.8546 109.91 31.7229 110.557C31.0351 113.977 30.2748 117.384 29.6972 120.823C28.6628 126.995 27.1743 133.112 27.5371 139.437Z" fill="#1E396B"/>
<path d="M99.3473 109.208C99.8631 109.361 100.161 109.45 100.462 109.538C107.907 111.787 115.352 114.036 122.797 116.287C123.138 116.39 123.555 116.435 123.786 116.661C124.03 116.897 124.269 117.376 124.183 117.644C124.1 117.905 123.622 118.122 123.283 118.195C123.012 118.251 122.684 118.071 122.386 117.983C114.987 115.739 107.585 113.493 100.186 111.247C99.8014 111.132 99.3607 111.075 99.0598 110.842C98.7912 110.632 98.4822 110.156 98.5601 109.909C98.6595 109.595 99.1216 109.393 99.3473 109.208Z" fill="#1E396B"/>
<path d="M91.9753 133.155C92.7302 133.394 93.281 133.577 93.8345 133.746C97.4669 134.843 101.099 135.939 104.732 137.032C104.947 137.097 105.226 137.099 105.358 137.242C105.699 137.604 105.978 138.026 106.282 138.427C105.801 138.588 105.25 138.985 104.847 138.87C101.115 137.801 97.4078 136.64 93.6921 135.509C93.0527 135.313 92.3702 135.197 91.7899 134.891C91.4863 134.73 91.1666 134.214 91.2042 133.899C91.2391 133.607 91.7362 133.368 91.9753 133.155Z" fill="#1E396B"/>
</svg>
